# xmcd
#
# Track frame offsets:
#   150
#   17066
#   30495
#   46825
#   55885
#   70538
#   96033
#   112687
#   124492
#   137868
#   150758
#   166898
#   186193
#   197829
#   210439
#
# Disc length: 3025 seconds
#
# Revision: 0
# Processed by: cddbd v1.5.2PL0 Copyright (c) Steve Scherf et al.
# Submitted via: uFREEDB ActiveX Control 1.5
#
DISCID=bb0bcf0f
DTITLE=J.W. Warren - Life Ain't Worth Livin'
DYEAR=1900
DGENRE=Blues
TTITLE0=Lonesome Bedroom Blues
TTITLE1=Trucking Little Woman
TTITLE2=Hoboing Into Hollywood
TTITLE3=Sundown Blues
TTITLE4=Careless Love
TTITLE5=The Escape Of Corrina
TTITLE6=Little Louise
TTITLE7=Rabbit On A Log
TTITLE8=When Your Gal Packs Up And Leaves
TTITLE9=I Believe I'll Go Back Home
TTITLE10=Highway 51
TTITLE11=A Long Old Lane
TTITLE12=Key To The Highway
TTITLE13=You're Gonna Miss Me When I'm Gone
TTITLE14=My Mind Gets To Wondering
EXTD=
EXTT0=
EXTT1=
EXTT2=
EXTT3=
EXTT4=
EXTT5=
EXTT6=
EXTT7=
EXTT8=
EXTT9=
EXTT10=
EXTT11=
EXTT12=
EXTT13=
EXTT14=
PLAYORDER=
